<svg width="796" height="730" viewBox="0 0 796 730" fill="none" xmlns="http://www.w3.org/2000/svg">
<path d="M604.5 702C700.9 697.2 787.167 635.167 812 605.5V168C771.833 159.333 677 142.7 619 145.5C546.5 149 492 143.5 363.5 118C235 92.5 183.5 147 79 229C-25.5 311 222 574.5 305.5 642.5C389 710.5 484 708 604.5 702Z" fill="#F6924A"/>
<path d="M493 156C608.2 139.2 784.789 36.1667 815.622 5L841.622 679.5C828.622 656.167 778.822 602.9 683.622 576.5C564.622 543.5 392.622 758 231.122 700.5C69.6219 643 -7.37814 547 4.12186 460.5C15.6219 374 64.7097 365.234 153.5 231C217 135 349 177 493 156Z" stroke="#8F7565" stroke-width="4"/>
<path filter="url(#dropShadow)" d="M493 156C608.2 139.2 784.789 36.1667 815.622 5L841.622 679.5C828.622 656.167 778.822 602.9 683.622 576.5C564.622 543.5 392.622 758 231.122 700.5C69.6219 643 -7.37814 547 4.12186 460.5C15.6219 374 64.7097 365.234 153.5 231C217 135 349 177 493 156Z" fill="#E6D1CD"/>
<path d="M843.5 187C753.667 154.333 540.7 93.8 407.5 113C241 137 159.874 195.5 177.5 322.5C197 463 48.5 509.5 57 580C65.5 650.5 118.5 719 223.5 719C375.557 719 328 595.5 469 595.5C599.5 595.5 721.333 684.667 814 719" stroke="#F2ECE2" stroke-width="2"/>

<filter id="dropShadow">
    <feDropShadow dx="0" dy="16" stdDeviation="0.5" flood-color="#8F7565"/>
</filter>
</svg>
